<mxfile host="65bd71144e">
    <diagram id="H1pSOAQZkZ5DOLWlRi9D" name="Page-1">
        <mxGraphModel dx="739" dy="549" grid="1" gridSize="10" guides="1" tooltips="1" connect="1" arrows="1" fold="1" page="1" pageScale="1" pageWidth="850" pageHeight="1100" math="0" shadow="0">
            <root>
                <mxCell id="0"/>
                <mxCell id="1" parent="0"/>
                <mxCell id="8" style="edgeStyle=orthogonalEdgeStyle;html=1;exitX=1;exitY=0.25;exitDx=0;exitDy=0;entryX=0;entryY=0.5;entryDx=0;entryDy=0;fontColor=#1A1A1A;" parent="1" source="2" target="3" edge="1">
                    <mxGeometry relative="1" as="geometry"/>
                </mxCell>
                <mxCell id="2" value="&lt;div style=&quot;box-sizing:border-box;width:100%;background:#e4e4e4;padding:2px;&quot;&gt;roles&lt;/div&gt;&lt;table style=&quot;width:100%;font-size:1em;&quot; cellpadding=&quot;2&quot; cellspacing=&quot;0&quot;&gt;&lt;tbody&gt;&lt;tr&gt;&lt;td&gt;PK&lt;/td&gt;&lt;td&gt;id&lt;/td&gt;&lt;/tr&gt;&lt;tr&gt;&lt;td&gt;string&lt;/td&gt;&lt;td&gt;description&lt;br&gt;&lt;/td&gt;&lt;/tr&gt;&lt;tr&gt;&lt;td&gt;&lt;/td&gt;&lt;td&gt;&lt;br&gt;&lt;/td&gt;&lt;/tr&gt;&lt;/tbody&gt;&lt;/table&gt;" style="verticalAlign=top;align=left;overflow=fill;html=1;fillStyle=solid;fillColor=#4D4D4D;portConstraintRotation=0;fontColor=#000000;strokeColor=#1A1A1A;" parent="1" vertex="1">
                    <mxGeometry x="60" y="170" width="180" height="90" as="geometry"/>
                </mxCell>
                <mxCell id="13" style="edgeStyle=orthogonalEdgeStyle;html=1;exitX=1;exitY=0.25;exitDx=0;exitDy=0;entryX=0.002;entryY=0.658;entryDx=0;entryDy=0;entryPerimeter=0;fontColor=#1A1A1A;" parent="1" source="3" target="9" edge="1">
                    <mxGeometry relative="1" as="geometry"/>
                </mxCell>
                <mxCell id="3" value="&lt;div style=&quot;box-sizing:border-box;width:100%;background:#e4e4e4;padding:2px;&quot;&gt;users&lt;/div&gt;&lt;table style=&quot;width:100%;font-size:1em;&quot; cellpadding=&quot;2&quot; cellspacing=&quot;0&quot;&gt;&lt;tbody&gt;&lt;tr&gt;&lt;td&gt;PK&lt;/td&gt;&lt;td&gt;id&lt;/td&gt;&lt;/tr&gt;&lt;tr&gt;&lt;td&gt;string&lt;/td&gt;&lt;td&gt;name&lt;br&gt;&lt;/td&gt;&lt;/tr&gt;&lt;tr&gt;&lt;td&gt;fk_roles&lt;/td&gt;&lt;td&gt;role&lt;/td&gt;&lt;/tr&gt;&lt;tr&gt;&lt;td&gt;string&lt;/td&gt;&lt;td&gt;password&lt;/td&gt;&lt;/tr&gt;&lt;tr&gt;&lt;td&gt;string&lt;/td&gt;&lt;td&gt;email&lt;/td&gt;&lt;/tr&gt;&lt;/tbody&gt;&lt;/table&gt;" style="verticalAlign=top;align=left;overflow=fill;html=1;fillStyle=solid;fillColor=#4D4D4D;portConstraintRotation=0;fontColor=#000000;strokeColor=#1A1A1A;" parent="1" vertex="1">
                    <mxGeometry x="320" y="170" width="180" height="120" as="geometry"/>
                </mxCell>
                <mxCell id="15" style="edgeStyle=orthogonalEdgeStyle;html=1;exitX=1.005;exitY=0.134;exitDx=0;exitDy=0;entryX=0;entryY=0.456;entryDx=0;entryDy=0;entryPerimeter=0;fontColor=#1A1A1A;exitPerimeter=0;" parent="1" source="9" target="14" edge="1">
                    <mxGeometry relative="1" as="geometry"/>
                </mxCell>
                <mxCell id="9" value="&lt;div style=&quot;box-sizing:border-box;width:100%;background:#e4e4e4;padding:2px;&quot;&gt;roadmap&lt;/div&gt;&lt;table style=&quot;width:100%;font-size:1em;&quot; cellpadding=&quot;2&quot; cellspacing=&quot;0&quot;&gt;&lt;tbody&gt;&lt;tr&gt;&lt;td&gt;PK&lt;/td&gt;&lt;td&gt;id&lt;/td&gt;&lt;/tr&gt;&lt;tr&gt;&lt;td&gt;string&lt;/td&gt;&lt;td&gt;title&lt;br&gt;&lt;/td&gt;&lt;/tr&gt;&lt;tr&gt;&lt;td&gt;string&lt;/td&gt;&lt;td&gt;description&lt;br&gt;&lt;/td&gt;&lt;/tr&gt;&lt;tr&gt;&lt;td&gt;float&lt;/td&gt;&lt;td&gt;proposed_budget&lt;/td&gt;&lt;/tr&gt;&lt;tr&gt;&lt;td&gt;string&lt;/td&gt;&lt;td&gt;file&lt;/td&gt;&lt;/tr&gt;&lt;tr&gt;&lt;td&gt;fk_producer&lt;/td&gt;&lt;td&gt;fk_producer&lt;/td&gt;&lt;/tr&gt;&lt;tr&gt;&lt;td&gt;fk_risk&lt;/td&gt;&lt;td&gt;fk_risk&lt;/td&gt;&lt;/tr&gt;&lt;/tbody&gt;&lt;/table&gt;" style="verticalAlign=top;align=left;overflow=fill;html=1;fillStyle=solid;fillColor=#4D4D4D;portConstraintRotation=0;fontColor=#000000;strokeColor=#1A1A1A;" parent="1" vertex="1">
                    <mxGeometry x="600" y="230" width="210" height="180" as="geometry"/>
                </mxCell>
                <mxCell id="12" style="edgeStyle=orthogonalEdgeStyle;html=1;exitX=1;exitY=0.25;exitDx=0;exitDy=0;entryX=0;entryY=0.75;entryDx=0;entryDy=0;fontColor=#1A1A1A;" parent="1" source="10" target="9" edge="1">
                    <mxGeometry relative="1" as="geometry"/>
                </mxCell>
                <mxCell id="10" value="&lt;div style=&quot;box-sizing:border-box;width:100%;background:#e4e4e4;padding:2px;&quot;&gt;risk&lt;/div&gt;&lt;table style=&quot;width:100%;font-size:1em;&quot; cellpadding=&quot;2&quot; cellspacing=&quot;0&quot;&gt;&lt;tbody&gt;&lt;tr&gt;&lt;td&gt;PK&lt;/td&gt;&lt;td&gt;id&lt;/td&gt;&lt;/tr&gt;&lt;tr&gt;&lt;td&gt;string&lt;/td&gt;&lt;td&gt;description&lt;br&gt;&lt;/td&gt;&lt;/tr&gt;&lt;tr&gt;&lt;td&gt;&lt;/td&gt;&lt;td&gt;&lt;br&gt;&lt;/td&gt;&lt;/tr&gt;&lt;/tbody&gt;&lt;/table&gt;" style="verticalAlign=top;align=left;overflow=fill;html=1;fillStyle=solid;fillColor=#4D4D4D;portConstraintRotation=0;fontColor=#000000;strokeColor=#1A1A1A;" parent="1" vertex="1">
                    <mxGeometry x="320" y="380" width="180" height="90" as="geometry"/>
                </mxCell>
                <mxCell id="14" value="&lt;div style=&quot;box-sizing:border-box;width:100%;background:#e4e4e4;padding:2px;&quot;&gt;homologation&lt;/div&gt;&lt;table style=&quot;width:100%;font-size:1em;&quot; cellpadding=&quot;2&quot; cellspacing=&quot;0&quot;&gt;&lt;tbody&gt;&lt;tr&gt;&lt;td&gt;PK&lt;/td&gt;&lt;td&gt;id&lt;/td&gt;&lt;/tr&gt;&lt;tr&gt;&lt;td&gt;fk_roadmap&lt;/td&gt;&lt;td&gt;fk_roadmap&lt;/td&gt;&lt;/tr&gt;&lt;tr&gt;&lt;td&gt;fk_status&lt;/td&gt;&lt;td&gt;fk_status&lt;/td&gt;&lt;/tr&gt;&lt;tr&gt;&lt;td&gt;string&lt;/td&gt;&lt;td&gt;comment&lt;/td&gt;&lt;/tr&gt;&lt;tr&gt;&lt;td&gt;fk_screenwriter&lt;/td&gt;&lt;td&gt;createdBy&lt;/td&gt;&lt;/tr&gt;&lt;/tbody&gt;&lt;/table&gt;" style="verticalAlign=top;align=left;overflow=fill;html=1;fillStyle=solid;fillColor=#4D4D4D;portConstraintRotation=0;fontColor=#000000;strokeColor=#1A1A1A;" parent="1" vertex="1">
                    <mxGeometry x="900" y="230" width="180" height="110" as="geometry"/>
                </mxCell>
                <mxCell id="17" style="edgeStyle=orthogonalEdgeStyle;html=1;exitX=0;exitY=0.25;exitDx=0;exitDy=0;entryX=-0.001;entryY=0.6;entryDx=0;entryDy=0;entryPerimeter=0;fontColor=#1A1A1A;" parent="1" source="16" target="14" edge="1">
                    <mxGeometry relative="1" as="geometry">
                        <Array as="points">
                            <mxPoint x="860" y="413"/>
                            <mxPoint x="860" y="290"/>
                        </Array>
                    </mxGeometry>
                </mxCell>
                <mxCell id="16" value="&lt;div style=&quot;box-sizing:border-box;width:100%;background:#e4e4e4;padding:2px;&quot;&gt;status&lt;/div&gt;&lt;table style=&quot;width:100%;font-size:1em;&quot; cellpadding=&quot;2&quot; cellspacing=&quot;0&quot;&gt;&lt;tbody&gt;&lt;tr&gt;&lt;td&gt;PK&lt;/td&gt;&lt;td&gt;id&lt;/td&gt;&lt;/tr&gt;&lt;tr&gt;&lt;td&gt;string&lt;/td&gt;&lt;td&gt;description&lt;br&gt;&lt;/td&gt;&lt;/tr&gt;&lt;tr&gt;&lt;td&gt;&lt;/td&gt;&lt;td&gt;&lt;br&gt;&lt;/td&gt;&lt;/tr&gt;&lt;/tbody&gt;&lt;/table&gt;" style="verticalAlign=top;align=left;overflow=fill;html=1;fillStyle=solid;fillColor=#4D4D4D;portConstraintRotation=0;fontColor=#000000;strokeColor=#1A1A1A;" parent="1" vertex="1">
                    <mxGeometry x="900" y="390" width="180" height="90" as="geometry"/>
                </mxCell>
            </root>
        </mxGraphModel>
    </diagram>
</mxfile>